<svg width="310" height="124" viewBox="0 0 310 124" fill="none" xmlns="http://www.w3.org/2000/svg">
<path d="M62.0021 124.002C27.8126 124.002 0 96.1898 0 62.0003C0 27.8126 27.8126 0 62.0021 0C96.1898 0 124 27.8126 124 62.0003C124 96.1898 96.1898 124.002 62.0021 124.002ZM62.0021 5.20712C30.6863 5.20712 5.20471 30.6844 5.20471 62.0003C5.20471 93.3161 30.6844 118.793 62.0021 118.793C93.3156 118.793 118.791 93.3186 118.791 62.0003C118.791 30.6844 93.3162 5.20712 62.0021 5.20712Z" fill="url(#paint0_linear_17_189)"/>
<path d="M120.528 59.3968H3.47057V64.6039H120.528V59.3968Z" fill="url(#paint1_linear_17_189)"/>
<path d="M63.4057 37.5284C34.0143 37.5284 12.0837 31.0609 10.7188 30.6476L12.2257 25.661C12.7187 25.8103 62.1683 40.3652 111.547 25.6586L113.028 30.6494C95.7094 35.8094 78.5594 37.5284 63.4057 37.5284Z" fill="url(#paint2_linear_17_189)"/>
<path d="M12.3345 97.0199L10.8487 92.0291C61.7665 76.8748 111.087 91.4086 113.162 92.0291L111.655 97.0175C111.16 96.8664 61.7145 82.3182 12.3345 97.0199Z" fill="url(#paint3_linear_17_189)"/>
<path d="M41.9307 118.528C16.2721 58.4559 38.4172 5.19863 38.6438 4.66873L43.4334 6.70977C43.2129 7.22033 21.9632 58.5248 46.7203 116.482L41.9307 118.528Z" fill="url(#paint4_linear_17_189)"/>
<path d="M81.6693 118.528L76.8797 116.484C101.635 58.528 80.3848 7.22285 80.1642 6.71229L84.9538 4.67125C85.1768 5.19873 107.324 58.4561 81.6693 118.528Z" fill="url(#paint5_linear_17_189)"/>
<path d="M64.6014 3.47057H59.3967V122.683H64.6014V3.47057Z" fill="url(#paint6_linear_17_189)"/>
<path d="M143.902 50.1247H164.89V54.7489H138.449V11.8648H143.902V50.1247Z" fill="white"/>
<path d="M210.254 54.7489V22.8804H215.148L215.531 27.5929C216.002 26.9253 216.513 26.3166 217.064 25.7668C217.633 25.1974 218.233 24.7065 218.862 24.2941C219.805 23.6658 220.827 23.1847 221.927 22.8509C223.047 22.4975 224.226 22.3109 225.465 22.2913C227.135 22.2913 228.648 22.5269 230.004 22.9982C231.38 23.4694 232.549 24.2058 233.512 25.2072C234.475 26.2086 235.212 27.4849 235.722 29.0361C236.253 30.5677 236.518 32.3938 236.518 34.5144V54.7489H231.065V34.6322C231.065 33.2185 230.908 32.0207 230.593 31.0389C230.279 30.0572 229.817 29.2619 229.208 28.6532C228.579 28.0445 227.813 27.6027 226.909 27.3278C226.025 27.0529 225.003 26.9155 223.843 26.9155C222.841 26.9155 221.908 27.0627 221.043 27.3573C220.178 27.6322 219.382 28.0151 218.655 28.506C218.066 28.9379 217.516 29.4386 217.005 30.0081C216.513 30.5775 216.081 31.2058 215.708 31.8931V54.7489H210.254Z" fill="white"/>
<path d="M260.1 50.9199C261.082 50.9199 262.036 50.7629 262.959 50.4487C263.902 50.1345 264.738 49.6927 265.465 49.1233C266.192 48.5735 266.771 47.9255 267.204 47.1794C267.656 46.4136 267.892 45.5889 267.911 44.7053H273.07C273.05 46.1191 272.677 47.4739 271.95 48.7699C271.242 50.0462 270.289 51.1654 269.09 52.1275C267.892 53.1093 266.516 53.8947 264.964 54.4838C263.411 55.0532 261.79 55.338 260.1 55.338C257.683 55.338 255.57 54.906 253.762 54.042C251.954 53.178 250.451 52.0097 249.252 50.5371C248.034 49.084 247.12 47.4052 246.511 45.5005C245.902 43.5762 245.597 41.5538 245.597 39.4331V38.1961C245.597 36.0951 245.902 34.0825 246.511 32.1582C247.12 30.2339 248.034 28.5354 249.252 27.0627C250.451 25.6097 251.954 24.4512 253.762 23.5872C255.57 22.7233 257.683 22.2913 260.1 22.2913C261.986 22.2913 263.716 22.5956 265.288 23.2044C266.88 23.7934 268.255 24.5985 269.415 25.6195C270.554 26.6602 271.448 27.8874 272.097 29.3012C272.745 30.715 273.07 32.2269 273.07 33.837H267.911C267.892 32.8749 267.675 31.9716 267.263 31.1273C266.87 30.2633 266.329 29.5074 265.642 28.8594C264.954 28.2114 264.128 27.7009 263.165 27.3278C262.222 26.9547 261.2 26.7682 260.1 26.7682C258.41 26.7682 256.985 27.1118 255.826 27.7991C254.686 28.4667 253.762 29.3405 253.055 30.4204C252.347 31.52 251.837 32.7472 251.522 34.1021C251.227 35.4569 251.08 36.8216 251.08 38.1961V39.4331C251.08 40.8273 251.227 42.2116 251.522 43.5861C251.837 44.9409 252.347 46.1583 253.055 47.2383C253.743 48.3379 254.656 49.2313 255.796 49.9185C256.956 50.5861 258.39 50.9199 260.1 50.9199Z" fill="white"/>
<path d="M288.221 27.6224C288.653 26.9744 289.135 26.3853 289.665 25.8552C290.196 25.3054 290.756 24.8243 291.345 24.4119C292.289 23.7247 293.32 23.2044 294.44 22.8509C295.58 22.4975 296.789 22.3109 298.066 22.2913C299.736 22.2913 301.25 22.5367 302.606 23.0276C303.981 23.4989 305.15 24.245 306.113 25.2661C307.076 26.2871 307.813 27.5831 308.324 29.1539C308.855 30.7051 309.12 32.5509 309.12 34.6912V54.7489H303.667V34.6322C303.667 33.3756 303.519 32.276 303.225 31.3335C302.93 30.3713 302.497 29.5761 301.928 28.9478C301.318 28.2605 300.552 27.75 299.628 27.4162C298.705 27.0627 297.644 26.8958 296.445 26.9155C295.462 26.9155 294.529 27.0529 293.645 27.3278C292.76 27.6027 291.945 27.9954 291.198 28.506C290.608 28.8987 290.058 29.3601 289.547 29.8903C289.056 30.4008 288.614 30.9702 288.221 31.5986V54.7489H282.768V9.50854H288.221V27.6224Z" fill="white"/>
<path d="M174.589 67.62C174.078 67.62 173.478 67.5611 172.791 67.4433C172.103 67.3255 171.582 67.2273 171.228 67.1487L172.113 62.7013C172.604 62.7406 173.085 62.77 173.557 62.7896C174.048 62.8289 174.431 62.8486 174.707 62.8486C175.453 62.8486 176.131 62.6424 176.741 62.23C177.369 61.8177 177.929 61.3268 178.421 60.7574C178.892 60.1879 179.295 59.5989 179.629 58.9902C179.983 58.3815 180.258 57.8808 180.455 57.488L182.636 53.2468L168.9 22.8804H175.001L183.756 43.4388L185.171 47.2972L186.674 43.5566L194.898 22.8804H201L184.817 59.6676C184.444 60.4923 183.962 61.3661 183.373 62.2889C182.803 63.2118 182.105 64.066 181.28 64.8514C180.455 65.6368 179.492 66.2946 178.391 66.8248C177.291 67.3549 176.023 67.62 174.589 67.62Z" fill="#725AC1"/>
<path d="M158.228 101.816H143.902L140.453 112.919H135L148.854 70.0354H153.423L167.041 112.919H161.618L158.228 101.816ZM145.376 97.0736H156.783L151.124 78.4591L145.376 97.0736Z" fill="white"/>
<path d="M194.897 80.4619C195.899 80.4619 196.941 80.5306 198.022 80.6681C199.122 80.8055 199.947 80.9921 200.498 81.2277L199.761 86.5587C198.7 86.3231 197.688 86.1562 196.725 86.058C195.781 85.9402 194.789 85.8813 193.747 85.8813C192.411 85.8813 191.203 86.0482 190.122 86.382C189.041 86.6962 188.098 87.1674 187.292 87.7958C186.565 88.3456 185.926 89.023 185.376 89.8281C184.845 90.6135 184.403 91.4971 184.05 92.4789V112.919H178.567V81.051H183.755L183.991 85.3217L184.02 86.1169C185.317 84.3694 186.869 82.9949 188.677 81.9935C190.505 80.9724 192.578 80.4619 194.897 80.4619Z" fill="white"/>
<path d="M224.344 113.509C222.104 113.509 220.041 113.126 218.154 112.36C216.287 111.594 214.686 110.524 213.35 109.149C212.013 107.775 210.972 106.145 210.225 104.26C209.478 102.375 209.105 100.323 209.105 98.1044V96.8674C209.105 94.2952 209.518 91.9978 210.343 89.9753C211.168 87.9332 212.269 86.2053 213.644 84.7915C215 83.3974 216.543 82.3273 218.272 81.5811C220.021 80.835 221.809 80.4619 223.637 80.4619C225.936 80.4619 227.941 80.8644 229.65 81.6695C231.38 82.4549 232.814 83.5447 233.954 84.9388C235.094 86.3526 235.939 88.0118 236.489 89.9164C237.059 91.8211 237.344 93.8828 237.344 96.1016V98.5462H214.558V98.7524C214.696 100.304 215 101.668 215.472 102.846C215.963 104.025 216.631 105.065 217.476 105.968C218.341 106.931 219.383 107.687 220.601 108.236C221.819 108.786 223.165 109.061 224.639 109.061C226.585 109.061 228.314 108.668 229.827 107.883C231.34 107.098 232.598 106.057 233.6 104.761L236.931 107.353C235.87 108.963 234.278 110.396 232.156 111.653C230.053 112.89 227.449 113.509 224.344 113.509ZM223.637 84.9388C222.537 84.9388 221.495 85.145 220.512 85.5573C219.53 85.95 218.646 86.5293 217.86 87.2951C217.073 88.0805 216.405 89.0426 215.855 90.1815C215.325 91.3007 214.951 92.5967 214.735 94.0693H231.891V93.8043C231.891 92.8225 231.704 91.772 231.33 90.6527C230.957 89.5139 230.436 88.5321 229.768 87.7074C229.1 86.8827 228.255 86.2151 227.233 85.7046C226.231 85.1941 225.032 84.9388 223.637 84.9388Z" fill="white"/>
<path d="M267.469 112.919C267.253 112.507 267.076 111.997 266.939 111.388C266.821 110.76 266.732 110.112 266.673 109.444C266.123 109.994 265.504 110.514 264.816 111.005C264.148 111.496 263.411 111.928 262.605 112.301C261.78 112.674 260.906 112.969 259.982 113.185C259.058 113.401 258.076 113.509 257.034 113.509C255.344 113.509 253.812 113.263 252.436 112.772C251.08 112.281 249.93 111.614 248.987 110.769C248.024 109.945 247.277 108.963 246.747 107.824C246.236 106.666 245.98 105.419 245.98 104.083C245.98 102.336 246.324 100.804 247.012 99.4888C247.72 98.1732 248.712 97.0736 249.989 96.19C251.267 95.326 252.799 94.678 254.588 94.2461C256.396 93.8141 258.41 93.5981 260.631 93.5981H266.585V91.0946C266.585 90.1324 266.408 89.2684 266.054 88.5027C265.701 87.7369 265.199 87.0791 264.551 86.5293C263.902 85.9991 263.107 85.5868 262.163 85.2922C261.24 84.9977 260.198 84.8504 259.039 84.8504C257.958 84.8504 256.985 84.9879 256.121 85.2628C255.276 85.5377 254.558 85.9009 253.969 86.3526C253.379 86.8042 252.917 87.3442 252.583 87.9725C252.269 88.5812 252.112 89.2194 252.112 89.887H246.629C246.649 88.7285 246.943 87.5896 247.513 86.4704C248.103 85.3512 248.948 84.3399 250.048 83.4367C251.129 82.5531 252.446 81.8364 253.998 81.2866C255.57 80.7368 257.349 80.4619 259.334 80.4619C261.141 80.4619 262.822 80.6877 264.374 81.1393C265.927 81.5713 267.273 82.2291 268.412 83.1127C269.533 84.0159 270.417 85.1352 271.065 86.4704C271.714 87.8056 272.038 89.3666 272.038 91.1535V105.968C272.038 107.029 272.136 108.158 272.333 109.356C272.529 110.534 272.804 111.565 273.158 112.448V112.919H267.469ZM257.83 108.767C258.891 108.767 259.884 108.629 260.807 108.354C261.731 108.079 262.576 107.716 263.342 107.264C264.089 106.813 264.738 106.302 265.288 105.733C265.838 105.144 266.27 104.535 266.585 103.907V97.4565H261.515C259.628 97.4565 257.978 97.6234 256.563 97.9572C255.167 98.2714 254.057 98.7622 253.232 99.4298C252.642 99.9011 252.19 100.461 251.876 101.109C251.581 101.757 251.434 102.493 251.434 103.318C251.434 104.103 251.561 104.83 251.817 105.497C252.092 106.165 252.495 106.734 253.025 107.206C253.556 107.696 254.224 108.079 255.03 108.354C255.836 108.629 256.769 108.767 257.83 108.767Z" fill="white"/>
<defs>
<linearGradient id="paint0_linear_17_189" x1="104.147" y1="20.9289" x2="19.851" y2="105.225" gradientUnits="userSpaceOnUse">
<stop stop-color="#F7ECE1"/>
<stop offset="0.25" stop-color="#8D86C9"/>
<stop offset="0.557692" stop-color="#9747FF"/>
<stop offset="1" stop-color="#242038"/>
</linearGradient>
<linearGradient id="paint1_linear_17_189" x1="104.147" y1="20.9289" x2="19.851" y2="105.225" gradientUnits="userSpaceOnUse">
<stop stop-color="#F7ECE1"/>
<stop offset="0.25" stop-color="#8D86C9"/>
<stop offset="0.557692" stop-color="#9747FF"/>
<stop offset="1" stop-color="#242038"/>
</linearGradient>
<linearGradient id="paint2_linear_17_189" x1="104.147" y1="20.9289" x2="19.851" y2="105.225" gradientUnits="userSpaceOnUse">
<stop stop-color="#F7ECE1"/>
<stop offset="0.25" stop-color="#8D86C9"/>
<stop offset="0.557692" stop-color="#9747FF"/>
<stop offset="1" stop-color="#242038"/>
</linearGradient>
<linearGradient id="paint3_linear_17_189" x1="104.147" y1="20.9289" x2="19.851" y2="105.225" gradientUnits="userSpaceOnUse">
<stop stop-color="#F7ECE1"/>
<stop offset="0.25" stop-color="#8D86C9"/>
<stop offset="0.557692" stop-color="#9747FF"/>
<stop offset="1" stop-color="#242038"/>
</linearGradient>
<linearGradient id="paint4_linear_17_189" x1="104.147" y1="20.9289" x2="19.851" y2="105.225" gradientUnits="userSpaceOnUse">
<stop stop-color="#F7ECE1"/>
<stop offset="0.25" stop-color="#8D86C9"/>
<stop offset="0.557692" stop-color="#9747FF"/>
<stop offset="1" stop-color="#242038"/>
</linearGradient>
<linearGradient id="paint5_linear_17_189" x1="104.147" y1="20.9289" x2="19.851" y2="105.225" gradientUnits="userSpaceOnUse">
<stop stop-color="#F7ECE1"/>
<stop offset="0.25" stop-color="#8D86C9"/>
<stop offset="0.557692" stop-color="#9747FF"/>
<stop offset="1" stop-color="#242038"/>
</linearGradient>
<linearGradient id="paint6_linear_17_189" x1="104.147" y1="20.9289" x2="19.851" y2="105.225" gradientUnits="userSpaceOnUse">
<stop stop-color="#F7ECE1"/>
<stop offset="0.25" stop-color="#8D86C9"/>
<stop offset="0.557692" stop-color="#9747FF"/>
<stop offset="1" stop-color="#242038"/>
</linearGradient>
</defs>
</svg>
