<?xml version="1.0" encoding="UTF-8"?>
<svg width="100%" height="100%" viewBox="0 0 1000 1000" fill="none" xmlns="http://www.w3.org/2000/svg">
  <rect width="100%" height="100%" fill="#242038"/>
  
  <!-- Small stars -->
  <g fill="#FFFFFF" fill-opacity="0.5">
    <circle cx="100" cy="100" r="1"/>
    <circle cx="200" cy="150" r="1"/>
    <circle cx="300" cy="200" r="1"/>
    <circle cx="400" cy="250" r="1"/>
    <circle cx="500" cy="300" r="1"/>
    <circle cx="600" cy="350" r="1"/>
    <circle cx="700" cy="400" r="1"/>
    <circle cx="800" cy="450" r="1"/>
    <circle cx="900" cy="500" r="1"/>
    <!-- Add more small stars as needed -->
  </g>
  
  <!-- Medium stars -->
  <g fill="#FFFFFF" fill-opacity="0.7">
    <circle cx="150" cy="150" r="2"/>
    <circle cx="250" cy="200" r="2"/>
    <circle cx="350" cy="250" r="2"/>
    <circle cx="450" cy="300" r="2"/>
    <circle cx="550" cy="350" r="2"/>
    <circle cx="650" cy="400" r="2"/>
    <circle cx="750" cy="450" r="2"/>
    <circle cx="850" cy="500" r="2"/>
    <!-- Add more medium stars as needed -->
  </g>
  
  <!-- Large stars -->
  <g fill="#FFFFFF">
    <circle cx="125" cy="175" r="3"/>
    <circle cx="225" cy="225" r="3"/>
    <circle cx="325" cy="275" r="3"/>
    <circle cx="425" cy="325" r="3"/>
    <circle cx="525" cy="375" r="3"/>
    <circle cx="625" cy="425" r="3"/>
    <circle cx="725" cy="475" r="3"/>
    <circle cx="825" cy="525" r="3"/>
    <!-- Add more large stars as needed -->
  </g>
</svg> 